G04 #@! TF.FileFunction,Legend,Top*
%FSLAX46Y46*%
G04 Gerber Fmt 4.6, Leading zero omitted, Abs format (unit mm)*
G04 Created by KiCad (PCBNEW (2015-04-05 BZR 5577)-product) date Ne 27. září 2015, 00:05:09 CEST*
%MOMM*%
G01*
G04 APERTURE LIST*
%ADD10C,0.100000*%
%ADD11C,0.150000*%
G04 APERTURE END LIST*
D10*
D11*
X195445000Y-103350000D02*
X195745000Y-103350000D01*
X195445000Y-97850000D02*
X195745000Y-97850000D01*
X200955000Y-97850000D02*
X200655000Y-97850000D01*
X200955000Y-103350000D02*
X200655000Y-103350000D01*
X195445000Y-103350000D02*
X195445000Y-97850000D01*
X200955000Y-103350000D02*
X200955000Y-97850000D01*
X195745000Y-103350000D02*
X195745000Y-105100000D01*
X182480000Y-123800000D02*
X181480000Y-123800000D01*
X181480000Y-125500000D02*
X182480000Y-125500000D01*
X188715700Y-105827200D02*
X187715700Y-105827200D01*
X187715700Y-107527200D02*
X188715700Y-107527200D01*
X182480000Y-121500000D02*
X181480000Y-121500000D01*
X181480000Y-123200000D02*
X182480000Y-123200000D01*
X190830000Y-124525000D02*
X191830000Y-124525000D01*
X191830000Y-122825000D02*
X190830000Y-122825000D01*
X190840000Y-129120000D02*
X191840000Y-129120000D01*
X191840000Y-127420000D02*
X190840000Y-127420000D01*
X190840000Y-126830000D02*
X191840000Y-126830000D01*
X191840000Y-125130000D02*
X190840000Y-125130000D01*
X178442900Y-112294600D02*
X178117900Y-112294600D01*
X178442900Y-119544600D02*
X178117900Y-119544600D01*
X171192900Y-119544600D02*
X171517900Y-119544600D01*
X171192900Y-112294600D02*
X171517900Y-112294600D01*
X178442900Y-112294600D02*
X178442900Y-112619600D01*
X171192900Y-112294600D02*
X171192900Y-112619600D01*
X171192900Y-119544600D02*
X171192900Y-119219600D01*
X178442900Y-119544600D02*
X178442900Y-119219600D01*
X178117900Y-112294600D02*
X178117900Y-110869600D01*
X182480000Y-126100000D02*
X181480000Y-126100000D01*
X181480000Y-127800000D02*
X182480000Y-127800000D01*
X197400000Y-124080000D02*
X197400000Y-129080000D01*
X197400000Y-129080000D02*
X194400000Y-129080000D01*
X194400000Y-129080000D02*
X194400000Y-124080000D01*
X194400000Y-124080000D02*
X197400000Y-124080000D01*
X185619040Y-105378880D02*
X190820960Y-105378880D01*
X190820960Y-102981120D02*
X185619040Y-102981120D01*
X183620060Y-101881300D02*
X183620060Y-102981120D01*
X183020620Y-102381680D02*
X184219500Y-102381680D01*
X184224580Y-102981120D02*
X184224580Y-105378880D01*
X188618780Y-100100000D02*
X189319820Y-100100000D01*
X187668820Y-100100000D02*
X187120180Y-100100000D01*
X187668820Y-100100000D02*
X187668820Y-100900100D01*
X187668820Y-100100000D02*
X187668820Y-99299900D01*
X187668820Y-100100000D02*
X188618780Y-99299900D01*
X188618780Y-99299900D02*
X188618780Y-100900100D01*
X188618780Y-100900100D02*
X187668820Y-100100000D01*
X187120180Y-98850320D02*
X187021120Y-98850320D01*
X187120180Y-101349680D02*
X187021120Y-101349680D01*
X189418880Y-98850320D02*
X187069380Y-98850320D01*
X189418880Y-101349680D02*
X187170980Y-101349680D01*
X209905000Y-124280000D02*
X209905000Y-123080000D01*
X211655000Y-123080000D02*
X211655000Y-124280000D01*
X212225000Y-124280000D02*
X212225000Y-123080000D01*
X213975000Y-123080000D02*
X213975000Y-124280000D01*
X207615000Y-124290000D02*
X207615000Y-123090000D01*
X209365000Y-123090000D02*
X209365000Y-124290000D01*
X209615000Y-98960000D02*
X209615000Y-100160000D01*
X207865000Y-100160000D02*
X207865000Y-98960000D01*
X209355000Y-115470000D02*
X209355000Y-116670000D01*
X207605000Y-116670000D02*
X207605000Y-115470000D01*
X211790000Y-120805000D02*
X209790000Y-120805000D01*
X209790000Y-118655000D02*
X211790000Y-118655000D01*
X192840000Y-110095000D02*
X190840000Y-110095000D01*
X190840000Y-107945000D02*
X192840000Y-107945000D01*
X185065000Y-129390000D02*
X185065000Y-127390000D01*
X187215000Y-127390000D02*
X187215000Y-129390000D01*
X170140000Y-107090000D02*
X170140000Y-108090000D01*
X171840000Y-108090000D02*
X171840000Y-107090000D01*
X195067619Y-100695238D02*
X195020000Y-100790476D01*
X194924762Y-100885714D01*
X194781905Y-101028571D01*
X194734286Y-101123810D01*
X194734286Y-101219048D01*
X194972381Y-101171429D02*
X194924762Y-101266667D01*
X194829524Y-101361905D01*
X194639048Y-101409524D01*
X194305714Y-101409524D01*
X194115238Y-101361905D01*
X194020000Y-101266667D01*
X193972381Y-101171429D01*
X193972381Y-100980952D01*
X194020000Y-100885714D01*
X194115238Y-100790476D01*
X194305714Y-100742857D01*
X194639048Y-100742857D01*
X194829524Y-100790476D01*
X194924762Y-100885714D01*
X194972381Y-100980952D01*
X194972381Y-101171429D01*
X194972381Y-99790476D02*
X194972381Y-100361905D01*
X194972381Y-100076191D02*
X193972381Y-100076191D01*
X194115238Y-100171429D01*
X194210476Y-100266667D01*
X194258095Y-100361905D01*
X178313334Y-125017143D02*
X178265715Y-125064762D01*
X178122858Y-125112381D01*
X178027620Y-125112381D01*
X177884762Y-125064762D01*
X177789524Y-124969524D01*
X177741905Y-124874286D01*
X177694286Y-124683810D01*
X177694286Y-124540952D01*
X177741905Y-124350476D01*
X177789524Y-124255238D01*
X177884762Y-124160000D01*
X178027620Y-124112381D01*
X178122858Y-124112381D01*
X178265715Y-124160000D01*
X178313334Y-124207619D01*
X179265715Y-125112381D02*
X178694286Y-125112381D01*
X178980000Y-125112381D02*
X178980000Y-124112381D01*
X178884762Y-124255238D01*
X178789524Y-124350476D01*
X178694286Y-124398095D01*
X184549034Y-107034343D02*
X184501415Y-107081962D01*
X184358558Y-107129581D01*
X184263320Y-107129581D01*
X184120462Y-107081962D01*
X184025224Y-106986724D01*
X183977605Y-106891486D01*
X183929986Y-106701010D01*
X183929986Y-106558152D01*
X183977605Y-106367676D01*
X184025224Y-106272438D01*
X184120462Y-106177200D01*
X184263320Y-106129581D01*
X184358558Y-106129581D01*
X184501415Y-106177200D01*
X184549034Y-106224819D01*
X184929986Y-106224819D02*
X184977605Y-106177200D01*
X185072843Y-106129581D01*
X185310939Y-106129581D01*
X185406177Y-106177200D01*
X185453796Y-106224819D01*
X185501415Y-106320057D01*
X185501415Y-106415295D01*
X185453796Y-106558152D01*
X184882367Y-107129581D01*
X185501415Y-107129581D01*
X178313334Y-122717143D02*
X178265715Y-122764762D01*
X178122858Y-122812381D01*
X178027620Y-122812381D01*
X177884762Y-122764762D01*
X177789524Y-122669524D01*
X177741905Y-122574286D01*
X177694286Y-122383810D01*
X177694286Y-122240952D01*
X177741905Y-122050476D01*
X177789524Y-121955238D01*
X177884762Y-121860000D01*
X178027620Y-121812381D01*
X178122858Y-121812381D01*
X178265715Y-121860000D01*
X178313334Y-121907619D01*
X179170477Y-122145714D02*
X179170477Y-122812381D01*
X178932381Y-121764762D02*
X178694286Y-122479048D01*
X179313334Y-122479048D01*
X187953334Y-124027143D02*
X187905715Y-124074762D01*
X187762858Y-124122381D01*
X187667620Y-124122381D01*
X187524762Y-124074762D01*
X187429524Y-123979524D01*
X187381905Y-123884286D01*
X187334286Y-123693810D01*
X187334286Y-123550952D01*
X187381905Y-123360476D01*
X187429524Y-123265238D01*
X187524762Y-123170000D01*
X187667620Y-123122381D01*
X187762858Y-123122381D01*
X187905715Y-123170000D01*
X187953334Y-123217619D01*
X188858096Y-123122381D02*
X188381905Y-123122381D01*
X188334286Y-123598571D01*
X188381905Y-123550952D01*
X188477143Y-123503333D01*
X188715239Y-123503333D01*
X188810477Y-123550952D01*
X188858096Y-123598571D01*
X188905715Y-123693810D01*
X188905715Y-123931905D01*
X188858096Y-124027143D01*
X188810477Y-124074762D01*
X188715239Y-124122381D01*
X188477143Y-124122381D01*
X188381905Y-124074762D01*
X188334286Y-124027143D01*
X187973334Y-128627143D02*
X187925715Y-128674762D01*
X187782858Y-128722381D01*
X187687620Y-128722381D01*
X187544762Y-128674762D01*
X187449524Y-128579524D01*
X187401905Y-128484286D01*
X187354286Y-128293810D01*
X187354286Y-128150952D01*
X187401905Y-127960476D01*
X187449524Y-127865238D01*
X187544762Y-127770000D01*
X187687620Y-127722381D01*
X187782858Y-127722381D01*
X187925715Y-127770000D01*
X187973334Y-127817619D01*
X188830477Y-127722381D02*
X188640000Y-127722381D01*
X188544762Y-127770000D01*
X188497143Y-127817619D01*
X188401905Y-127960476D01*
X188354286Y-128150952D01*
X188354286Y-128531905D01*
X188401905Y-128627143D01*
X188449524Y-128674762D01*
X188544762Y-128722381D01*
X188735239Y-128722381D01*
X188830477Y-128674762D01*
X188878096Y-128627143D01*
X188925715Y-128531905D01*
X188925715Y-128293810D01*
X188878096Y-128198571D01*
X188830477Y-128150952D01*
X188735239Y-128103333D01*
X188544762Y-128103333D01*
X188449524Y-128150952D01*
X188401905Y-128198571D01*
X188354286Y-128293810D01*
X187973334Y-126337143D02*
X187925715Y-126384762D01*
X187782858Y-126432381D01*
X187687620Y-126432381D01*
X187544762Y-126384762D01*
X187449524Y-126289524D01*
X187401905Y-126194286D01*
X187354286Y-126003810D01*
X187354286Y-125860952D01*
X187401905Y-125670476D01*
X187449524Y-125575238D01*
X187544762Y-125480000D01*
X187687620Y-125432381D01*
X187782858Y-125432381D01*
X187925715Y-125480000D01*
X187973334Y-125527619D01*
X188306667Y-125432381D02*
X188973334Y-125432381D01*
X188544762Y-126432381D01*
X181320281Y-116895790D02*
X180320281Y-116895790D01*
X181225043Y-115848171D02*
X181272662Y-115895790D01*
X181320281Y-116038647D01*
X181320281Y-116133885D01*
X181272662Y-116276743D01*
X181177424Y-116371981D01*
X181082186Y-116419600D01*
X180891710Y-116467219D01*
X180748852Y-116467219D01*
X180558376Y-116419600D01*
X180463138Y-116371981D01*
X180367900Y-116276743D01*
X180320281Y-116133885D01*
X180320281Y-116038647D01*
X180367900Y-115895790D01*
X180415519Y-115848171D01*
X181320281Y-114895790D02*
X181320281Y-115467219D01*
X181320281Y-115181505D02*
X180320281Y-115181505D01*
X180463138Y-115276743D01*
X180558376Y-115371981D01*
X180605995Y-115467219D01*
X178303334Y-127412381D02*
X177827143Y-127412381D01*
X177827143Y-126412381D01*
X179160477Y-127412381D02*
X178589048Y-127412381D01*
X178874762Y-127412381D02*
X178874762Y-126412381D01*
X178779524Y-126555238D01*
X178684286Y-126650476D01*
X178589048Y-126698095D01*
X194757143Y-129558571D02*
X194757143Y-130772857D01*
X194828571Y-130915714D01*
X194900000Y-130987143D01*
X195042857Y-131058571D01*
X195328571Y-131058571D01*
X195471429Y-130987143D01*
X195542857Y-130915714D01*
X195614286Y-130772857D01*
X195614286Y-129558571D01*
X197114286Y-131058571D02*
X196257143Y-131058571D01*
X196685715Y-131058571D02*
X196685715Y-129558571D01*
X196542858Y-129772857D01*
X196400000Y-129915714D01*
X196257143Y-129987143D01*
X182693334Y-104537143D02*
X182645715Y-104584762D01*
X182502858Y-104632381D01*
X182407620Y-104632381D01*
X182264762Y-104584762D01*
X182169524Y-104489524D01*
X182121905Y-104394286D01*
X182074286Y-104203810D01*
X182074286Y-104060952D01*
X182121905Y-103870476D01*
X182169524Y-103775238D01*
X182264762Y-103680000D01*
X182407620Y-103632381D01*
X182502858Y-103632381D01*
X182645715Y-103680000D01*
X182693334Y-103727619D01*
X183026667Y-103632381D02*
X183645715Y-103632381D01*
X183312381Y-104013333D01*
X183455239Y-104013333D01*
X183550477Y-104060952D01*
X183598096Y-104108571D01*
X183645715Y-104203810D01*
X183645715Y-104441905D01*
X183598096Y-104537143D01*
X183550477Y-104584762D01*
X183455239Y-104632381D01*
X183169524Y-104632381D01*
X183074286Y-104584762D01*
X183026667Y-104537143D01*
X183239108Y-102450569D02*
X184001013Y-102450569D01*
X183620061Y-102831521D02*
X183620061Y-102069616D01*
X180961905Y-100552381D02*
X180961905Y-99552381D01*
X181200000Y-99552381D01*
X181342858Y-99600000D01*
X181438096Y-99695238D01*
X181485715Y-99790476D01*
X181533334Y-99980952D01*
X181533334Y-100123810D01*
X181485715Y-100314286D01*
X181438096Y-100409524D01*
X181342858Y-100504762D01*
X181200000Y-100552381D01*
X180961905Y-100552381D01*
X182485715Y-100552381D02*
X181914286Y-100552381D01*
X182200000Y-100552381D02*
X182200000Y-99552381D01*
X182104762Y-99695238D01*
X182009524Y-99790476D01*
X181914286Y-99838095D01*
X184548095Y-98252381D02*
X184548095Y-97252381D01*
X185119524Y-98252381D02*
X184690952Y-97680952D01*
X185119524Y-97252381D02*
X184548095Y-97823810D01*
X191391905Y-97966667D02*
X191868096Y-97966667D01*
X191296667Y-98252381D02*
X191630000Y-97252381D01*
X191963334Y-98252381D01*
X211232381Y-127406666D02*
X210756190Y-127740000D01*
X211232381Y-127978095D02*
X210232381Y-127978095D01*
X210232381Y-127597142D01*
X210280000Y-127501904D01*
X210327619Y-127454285D01*
X210422857Y-127406666D01*
X210565714Y-127406666D01*
X210660952Y-127454285D01*
X210708571Y-127501904D01*
X210756190Y-127597142D01*
X210756190Y-127978095D01*
X211232381Y-126454285D02*
X211232381Y-127025714D01*
X211232381Y-126740000D02*
X210232381Y-126740000D01*
X210375238Y-126835238D01*
X210470476Y-126930476D01*
X210518095Y-127025714D01*
X213552381Y-127406666D02*
X213076190Y-127740000D01*
X213552381Y-127978095D02*
X212552381Y-127978095D01*
X212552381Y-127597142D01*
X212600000Y-127501904D01*
X212647619Y-127454285D01*
X212742857Y-127406666D01*
X212885714Y-127406666D01*
X212980952Y-127454285D01*
X213028571Y-127501904D01*
X213076190Y-127597142D01*
X213076190Y-127978095D01*
X212647619Y-127025714D02*
X212600000Y-126978095D01*
X212552381Y-126882857D01*
X212552381Y-126644761D01*
X212600000Y-126549523D01*
X212647619Y-126501904D01*
X212742857Y-126454285D01*
X212838095Y-126454285D01*
X212980952Y-126501904D01*
X213552381Y-127073333D01*
X213552381Y-126454285D01*
X208942381Y-127406666D02*
X208466190Y-127740000D01*
X208942381Y-127978095D02*
X207942381Y-127978095D01*
X207942381Y-127597142D01*
X207990000Y-127501904D01*
X208037619Y-127454285D01*
X208132857Y-127406666D01*
X208275714Y-127406666D01*
X208370952Y-127454285D01*
X208418571Y-127501904D01*
X208466190Y-127597142D01*
X208466190Y-127978095D01*
X207942381Y-127073333D02*
X207942381Y-126454285D01*
X208323333Y-126787619D01*
X208323333Y-126644761D01*
X208370952Y-126549523D01*
X208418571Y-126501904D01*
X208513810Y-126454285D01*
X208751905Y-126454285D01*
X208847143Y-126501904D01*
X208894762Y-126549523D01*
X208942381Y-126644761D01*
X208942381Y-126930476D01*
X208894762Y-127025714D01*
X208847143Y-127073333D01*
X207092381Y-99726666D02*
X206616190Y-100060000D01*
X207092381Y-100298095D02*
X206092381Y-100298095D01*
X206092381Y-99917142D01*
X206140000Y-99821904D01*
X206187619Y-99774285D01*
X206282857Y-99726666D01*
X206425714Y-99726666D01*
X206520952Y-99774285D01*
X206568571Y-99821904D01*
X206616190Y-99917142D01*
X206616190Y-100298095D01*
X206425714Y-98869523D02*
X207092381Y-98869523D01*
X206044762Y-99107619D02*
X206759048Y-99345714D01*
X206759048Y-98726666D01*
X208882381Y-112676666D02*
X208406190Y-113010000D01*
X208882381Y-113248095D02*
X207882381Y-113248095D01*
X207882381Y-112867142D01*
X207930000Y-112771904D01*
X207977619Y-112724285D01*
X208072857Y-112676666D01*
X208215714Y-112676666D01*
X208310952Y-112724285D01*
X208358571Y-112771904D01*
X208406190Y-112867142D01*
X208406190Y-113248095D01*
X207882381Y-111771904D02*
X207882381Y-112248095D01*
X208358571Y-112295714D01*
X208310952Y-112248095D01*
X208263333Y-112152857D01*
X208263333Y-111914761D01*
X208310952Y-111819523D01*
X208358571Y-111771904D01*
X208453810Y-111724285D01*
X208691905Y-111724285D01*
X208787143Y-111771904D01*
X208834762Y-111819523D01*
X208882381Y-111914761D01*
X208882381Y-112152857D01*
X208834762Y-112248095D01*
X208787143Y-112295714D01*
X210623334Y-117882381D02*
X210290000Y-117406190D01*
X210051905Y-117882381D02*
X210051905Y-116882381D01*
X210432858Y-116882381D01*
X210528096Y-116930000D01*
X210575715Y-116977619D01*
X210623334Y-117072857D01*
X210623334Y-117215714D01*
X210575715Y-117310952D01*
X210528096Y-117358571D01*
X210432858Y-117406190D01*
X210051905Y-117406190D01*
X211480477Y-116882381D02*
X211290000Y-116882381D01*
X211194762Y-116930000D01*
X211147143Y-116977619D01*
X211051905Y-117120476D01*
X211004286Y-117310952D01*
X211004286Y-117691905D01*
X211051905Y-117787143D01*
X211099524Y-117834762D01*
X211194762Y-117882381D01*
X211385239Y-117882381D01*
X211480477Y-117834762D01*
X211528096Y-117787143D01*
X211575715Y-117691905D01*
X211575715Y-117453810D01*
X211528096Y-117358571D01*
X211480477Y-117310952D01*
X211385239Y-117263333D01*
X211194762Y-117263333D01*
X211099524Y-117310952D01*
X211051905Y-117358571D01*
X211004286Y-117453810D01*
X191673334Y-107172381D02*
X191340000Y-106696190D01*
X191101905Y-107172381D02*
X191101905Y-106172381D01*
X191482858Y-106172381D01*
X191578096Y-106220000D01*
X191625715Y-106267619D01*
X191673334Y-106362857D01*
X191673334Y-106505714D01*
X191625715Y-106600952D01*
X191578096Y-106648571D01*
X191482858Y-106696190D01*
X191101905Y-106696190D01*
X192006667Y-106172381D02*
X192673334Y-106172381D01*
X192244762Y-107172381D01*
X186592381Y-133116666D02*
X186116190Y-133450000D01*
X186592381Y-133688095D02*
X185592381Y-133688095D01*
X185592381Y-133307142D01*
X185640000Y-133211904D01*
X185687619Y-133164285D01*
X185782857Y-133116666D01*
X185925714Y-133116666D01*
X186020952Y-133164285D01*
X186068571Y-133211904D01*
X186116190Y-133307142D01*
X186116190Y-133688095D01*
X186020952Y-132545238D02*
X185973333Y-132640476D01*
X185925714Y-132688095D01*
X185830476Y-132735714D01*
X185782857Y-132735714D01*
X185687619Y-132688095D01*
X185640000Y-132640476D01*
X185592381Y-132545238D01*
X185592381Y-132354761D01*
X185640000Y-132259523D01*
X185687619Y-132211904D01*
X185782857Y-132164285D01*
X185830476Y-132164285D01*
X185925714Y-132211904D01*
X185973333Y-132259523D01*
X186020952Y-132354761D01*
X186020952Y-132545238D01*
X186068571Y-132640476D01*
X186116190Y-132688095D01*
X186211429Y-132735714D01*
X186401905Y-132735714D01*
X186497143Y-132688095D01*
X186544762Y-132640476D01*
X186592381Y-132545238D01*
X186592381Y-132354761D01*
X186544762Y-132259523D01*
X186497143Y-132211904D01*
X186401905Y-132164285D01*
X186211429Y-132164285D01*
X186116190Y-132211904D01*
X186068571Y-132259523D01*
X186020952Y-132354761D01*
X169247143Y-107756666D02*
X169294762Y-107804285D01*
X169342381Y-107947142D01*
X169342381Y-108042380D01*
X169294762Y-108185238D01*
X169199524Y-108280476D01*
X169104286Y-108328095D01*
X168913810Y-108375714D01*
X168770952Y-108375714D01*
X168580476Y-108328095D01*
X168485238Y-108280476D01*
X168390000Y-108185238D01*
X168342381Y-108042380D01*
X168342381Y-107947142D01*
X168390000Y-107804285D01*
X168437619Y-107756666D01*
X168770952Y-107185238D02*
X168723333Y-107280476D01*
X168675714Y-107328095D01*
X168580476Y-107375714D01*
X168532857Y-107375714D01*
X168437619Y-107328095D01*
X168390000Y-107280476D01*
X168342381Y-107185238D01*
X168342381Y-106994761D01*
X168390000Y-106899523D01*
X168437619Y-106851904D01*
X168532857Y-106804285D01*
X168580476Y-106804285D01*
X168675714Y-106851904D01*
X168723333Y-106899523D01*
X168770952Y-106994761D01*
X168770952Y-107185238D01*
X168818571Y-107280476D01*
X168866190Y-107328095D01*
X168961429Y-107375714D01*
X169151905Y-107375714D01*
X169247143Y-107328095D01*
X169294762Y-107280476D01*
X169342381Y-107185238D01*
X169342381Y-106994761D01*
X169294762Y-106899523D01*
X169247143Y-106851904D01*
X169151905Y-106804285D01*
X168961429Y-106804285D01*
X168866190Y-106851904D01*
X168818571Y-106899523D01*
X168770952Y-106994761D01*
M02*
